<?xml version="1.0" encoding="UTF-8"?>
<svg width="48px" height="49px" viewBox="0 0 48 49" version="1.1" xmlns="http://www.w3.org/2000/svg" xmlns:xlink="http://www.w3.org/1999/xlink">
    <!-- Generator: Sketch 41.2 (35397) - http://www.bohemiancoding.com/sketch -->
    <title>icon-design</title>
    <desc>Created with Sketch.</desc>
    <defs></defs>
    <g id="Desktop" stroke="none" stroke-width="1" fill="none" fill-rule="evenodd">
        <g transform="translate(-276.000000, -3190.000000)" id="What-we-do" fill="#ECEFF1">
            <g transform="translate(55.000000, 3020.000000)">
                <g id="1" transform="translate(0.000000, 165.000000)">
                    <path d="M253.373097,29.904 L263.954097,40.488 L263.954097,40.488 L263.956097,40.489 C264.051097,40.584 264.125097,40.696 264.175097,40.819 C264.175097,40.819 264.175097,40.82 264.176097,40.82 L268.773097,52.038 C268.927097,52.415 268.842097,52.849 268.556097,53.138 C268.366097,53.33 268.111097,53.433 267.852097,53.433 C267.723097,53.433 267.593097,53.408 267.470097,53.356 L256.390097,48.702 C256.320097,48.673 256.270097,48.622 256.211097,48.58 C256.164097,48.547 256.111097,48.528 256.070097,48.486 L256.064097,48.481 C256.063097,48.479 256.061097,48.477 256.059097,48.476 L246.552097,38.937 L242.971097,43.678 C243.154097,45.629 242.505097,47.599 241.097097,49.276 C238.908097,51.884 235.240097,53.433 231.269097,53.433 L231.160097,53.433 C227.998097,53.411 224.487097,51.507 221.273097,48.073 C220.993097,47.774 220.921097,47.332 221.091097,46.957 C221.262097,46.583 221.641097,46.35 222.046097,46.371 C226.599097,46.607 227.108097,44.881 227.840097,42.499 C228.171097,41.423 228.513097,40.311 229.238097,39.306 C230.903097,37.002 233.546097,36.244 235.529097,36.269 L239.615097,31.834 L225.879097,17.93 C225.878097,17.929 225.878097,17.929 225.877097,17.929 C225.877097,17.928 225.876097,17.928 225.876097,17.927 L222.820097,14.834 C222.787097,14.8 222.772097,14.756 222.745097,14.719 C222.709097,14.691 222.667097,14.678 222.635097,14.645 C221.581097,13.579 221.001097,12.161 221.001097,10.651 C221.000097,9.141 221.581097,7.722 222.635097,6.655 C224.812097,4.451 228.354097,4.451 230.530097,6.655 C230.563097,6.688 230.576097,6.73 230.603097,6.766 C230.639097,6.794 230.682097,6.808 230.715097,6.841 L247.234097,23.564 L264.041097,5.321 C264.229097,5.116 264.493097,5 264.770097,5 C266.853097,5 268.823097,6.995 268.823097,9.104 C268.823097,9.325 268.751097,9.539 268.619097,9.716 L253.373097,29.904 Z M266.007097,50.557 L262.905097,42.987 L258.530097,47.416 L266.007097,50.557 Z M256.769097,46.346 L261.841097,41.21 L252.153097,31.52 L247.772097,37.32 L256.769097,46.346 Z M230.847097,40.497 C230.318097,41.231 230.040097,42.139 229.744097,43.099 C229.095097,45.211 228.312097,47.759 224.396097,48.303 C226.714097,50.309 229.070097,51.4 231.174097,51.415 C234.575097,51.447 237.746097,50.152 239.578097,47.969 C240.659097,46.681 241.131097,45.194 240.963097,43.753 L235.529097,38.285 C234.066097,38.257 232.075097,38.801 230.847097,40.497 Z M229.306097,8.268 C229.273097,8.235 229.259097,8.192 229.232097,8.156 C229.196097,8.128 229.153097,8.114 229.121097,8.081 C227.764097,6.709 225.402097,6.709 224.045097,8.081 C223.367097,8.767 222.995097,9.679 222.995097,10.65 C222.995097,11.621 223.367097,12.533 224.045097,13.218 C224.079097,13.252 224.093097,13.296 224.121097,13.334 C224.156097,13.361 224.198097,13.375 224.230097,13.407 L226.582097,15.788 L231.658097,10.65 L229.306097,8.268 Z M233.067097,12.076 L227.992097,17.215 L240.976097,30.357 L245.873097,25.041 L233.067097,12.076 Z M265.154097,7.071 L237.340097,37.262 L241.866097,41.817 L266.798097,8.803 C266.641097,8.032 265.914097,7.273 265.154097,7.071 Z" id="icon-design"></path>
                </g>
            </g>
        </g>
    </g>
</svg>