<?xml version="1.0" encoding="UTF-8"?>
<svg width="32px" height="48px" viewBox="0 0 32 48" version="1.1" xmlns="http://www.w3.org/2000/svg" xmlns:xlink="http://www.w3.org/1999/xlink">
    <!-- Generator: Sketch 41.2 (35397) - http://www.bohemiancoding.com/sketch -->
    <title>icon-brand</title>
    <desc>Created with Sketch.</desc>
    <defs></defs>
    <g id="Desktop" stroke="none" stroke-width="1" fill="none" fill-rule="evenodd">
        <g transform="translate(-1094.000000, -3190.000000)" id="What-we-do" fill="#ECEFF1">
            <g transform="translate(55.000000, 3020.000000)">
                <g id="3" transform="translate(800.000000, 165.000000)">
                    <path d="M270,38 L261.217,38 L266.922,51.613 C267.136,52.123 266.896,52.709 266.387,52.923 C266.261,52.975 266.129,52.999 266,52.999 C265.609,52.999 265.238,52.77 265.078,52.387 L259.049,38 L250.951,38 L244.922,52.387 C244.762,52.77 244.391,52.999 244,52.999 C243.871,52.999 243.74,52.975 243.613,52.923 C243.105,52.709 242.864,52.123 243.078,51.613 L248.783,38 L240,38 C239.447,38 239,37.552 239,36.999 C239,36.447 239.447,36 240,36 L243,36 L243,8.999 C243,8.447 243.447,7.999 244,7.999 L254,7.999 L254,5.999 C254,5.447 254.447,5 255,5 C255.553,5 256,5.447 256,5.999 L256,7.999 L266,7.999 C266.553,7.999 267,8.447 267,8.999 L267,36 L270,36 C270.553,36 271,36.447 271,36.999 C271,37.552 270.553,38 270,38 Z M265,10 L245,10 L245,36 L265,36 L265,10 Z" id="icon-brand"></path>
                </g>
            </g>
        </g>
    </g>
</svg>