<?xml version="1.0" encoding="UTF-8"?>
<svg width="112px" height="28px" viewBox="0 0 112 28" version="1.1" xmlns="http://www.w3.org/2000/svg" xmlns:xlink="http://www.w3.org/1999/xlink">
    <!-- Generator: Sketch 46.2 (44496) - http://www.bohemiancoding.com/sketch -->
    <title>logo</title>
    <desc>Created with Sketch.</desc>
    <defs>
        <path d="M1.52231579,0.727263158 L6.94915789,0.727263158 L6.45326316,6.37884211 C6.75242105,6.33905263 7.43473684,6.31915789 8.50021053,6.31915789 C10.7895789,6.31915789 12.4961053,6.98305263 13.6227368,8.31084211 C14.7486316,9.63789474 15.2017895,11.5485263 14.9829474,14.0434737 C14.5187368,19.3310526 11.7106316,21.9748421 6.55863158,21.9748421 L6.52768421,21.9748421 C5.11442105,21.9748421 3.94652632,21.8237895 3.02473684,21.5216842 C2.10221053,21.2188421 1.43905263,20.7885263 1.03378947,20.2285263 C0.629263158,19.6677895 0.361789474,19.1011579 0.231368421,18.5264211 C0.100947368,17.9509474 0.0685263158,17.2973684 0.132631579,16.5634737 L1.52231579,0.727263158 Z M5.81957895,18.228 C6.07157895,18.4497895 6.47905263,18.5603158 7.042,18.5603158 C7.77884211,18.5603158 8.35505263,18.116 8.77136842,17.2281053 C9.18621053,16.3394737 9.45368421,15.2187368 9.57305263,13.8651579 C9.688,12.5521053 9.548,11.5205263 9.15305263,10.7696842 C8.75884211,10.0195789 8.11115789,9.64452632 7.21,9.64452632 C7.02578947,9.64452632 6.67652632,9.66442105 6.16073684,9.70347368 L5.47989474,17.4653684 C5.45484211,17.7512632 5.56831579,18.0054737 5.81957895,18.228 Z" id="path-1"></path>
        <path d="M1.78094737,0.0353684211 L1.43242105,4.01652632 L6.98157895,4.01652632 L7.33084211,0.0353684211 L1.78094737,0.0353684211 Z M1.34031579,5.76136842 L0.00368421053,21 L5.42978947,21 L6.76642105,5.76136842 L1.34031579,5.76136842 Z" id="path-3"></path>
        <polygon id="path-5" points="1.94821053 0.602736842 1.58936842 4.68852632 7.97189474 4.68852632 0.828210526 11.6214737 0.457578947 15.8421053 13.0214737 15.8421053 13.3965263 11.5625263 7.52315789 11.5625263 13.9830526 4.88452632 14.3581053 0.602736842"></polygon>
        <polygon id="path-7" points="2.18473684 0.632210526 1.79126316 5.12031579 11.2095789 5.12031579 0.675684211 16.7734737 0.305052632 21 16.5369474 21 16.9304211 16.5111579 7.71252632 16.5111579 17.9656842 4.71947368 18.3237895 0.632210526"></polygon>
        <path d="M2.31147368,0.0353684211 L1.96221053,4.01652632 L7.51136842,4.01652632 L7.86136842,0.0353684211 L2.31147368,0.0353684211 Z M1.87084211,5.76136842 L0.534210526,21 L5.95957895,21 L7.29694737,5.76136842 L1.87084211,5.76136842 Z" id="path-9"></path>
    </defs>
    <g id="Desktop" stroke="none" stroke-width="1" fill="none" fill-rule="evenodd">
        <g id="Home" transform="translate(-125.000000, -98.000000)">
            <g id="logo" transform="translate(125.000000, 98.000000)">
                <g id="Group-957">
                    <mask id="mask-2" fill="white">
                        <use xlink:href="#path-1"></use>
                    </mask>
                    <g id="Clip-956"></g>
                    <polygon id="Fill-955" fill="#F9B31D" mask="url(#mask-2)" points="-1.77431579 23.8508421 16.9127368 23.8508421 16.9127368 -1.148 -1.77431579 -1.148"></polygon>
                </g>
                <g id="Group-960" transform="translate(16.210526, 0.736842)">
                    <mask id="mask-4" fill="white">
                        <use xlink:href="#path-3"></use>
                    </mask>
                    <g id="Clip-959"></g>
                    <polygon id="Fill-958" fill="#F9B31D" mask="url(#mask-4)" points="-1.87231579 22.876 9.20610526 22.876 9.20610526 -1.83989474 -1.87231579 -1.83989474"></polygon>
                </g>
                <g id="Group-963" transform="translate(22.842105, 5.894737)">
                    <mask id="mask-6" fill="white">
                        <use xlink:href="#path-5"></use>
                    </mask>
                    <g id="Clip-962"></g>
                    <polygon id="Fill-961" fill="#F9B31D" mask="url(#mask-6)" points="-1.41768421 17.7173684 16.2341053 17.7173684 16.2341053 -1.27252632 -1.41768421 -1.27252632"></polygon>
                </g>
                <g id="Group-966" transform="translate(37.578947, 0.736842)">
                    <mask id="mask-8" fill="white">
                        <use xlink:href="#path-7"></use>
                    </mask>
                    <g id="Clip-965"></g>
                    <polygon id="Fill-964" fill="#F9B31D" mask="url(#mask-8)" points="-1.57094737 22.8752632 20.1990526 22.8752632 20.1990526 -1.24378947 -1.57094737 -1.24378947"></polygon>
                </g>
                <g id="Group-969" transform="translate(56.736842, 0.736842)">
                    <mask id="mask-10" fill="white">
                        <use xlink:href="#path-9"></use>
                    </mask>
                    <g id="Clip-968"></g>
                    <polygon id="Fill-967" fill="#F9B31D" mask="url(#mask-10)" points="-1.34178947 22.876 9.73663158 22.876 9.73663158 -1.83989474 -1.34178947 -1.83989474"></polygon>
                </g>
                <g id="Group-974" transform="translate(64.842105, 6.631579)" fill="#FFFFFF">
                    <path d="M6.00725263,10.6912842 C5.9122,11.7700211 6.37125263,12.3093895 7.38293684,12.3093895 L7.41462105,12.3093895 C7.92009474,12.3093895 8.32904211,12.1141263 8.64293684,11.7250737 C8.95609474,11.3352842 9.13146316,10.9263368 9.16904211,10.4960211 L9.28177895,9.20875789 C8.77925263,9.16823158 8.42998947,9.1476 8.23398947,9.1476 C6.83988421,9.1476 6.09714737,9.66265263 6.00725263,10.6912842 M0.501568421,11.5931789 C0.528831579,11.2851789 0.594410526,10.9698105 0.700515789,10.6470737 C0.805884211,10.3236 1.01956842,9.93381053 1.34230526,9.47623158 C1.66430526,9.01865263 2.07177895,8.61633684 2.56398947,8.26854737 C3.05693684,7.92075789 3.77093684,7.62454737 4.70525263,7.38138947 C5.64030526,7.13749474 6.71977895,7.01591579 7.94072632,7.01591579 C8.59209474,7.01591579 9.06588421,7.02549474 9.36356842,7.04612632 C9.43725263,6.21054737 9.27809474,5.61444211 8.88535789,5.25707368 C8.49335789,4.89823158 8.01293684,4.71991579 7.44556842,4.71991579 C5.86430526,4.71991579 4.24030526,5.03823158 2.57356842,5.67412632 L2.92356842,1.69296842 C4.81209474,0.987073684 6.56872632,0.634126316 8.19051579,0.634126316 C10.5056737,0.634126316 12.2460947,1.20370526 13.4117789,2.34138947 C14.5774632,3.47981053 15.0674632,5.11781053 14.8795684,7.25465263 L14.5627263,10.8629684 C14.3969368,12.7514947 13.7485158,14.1279158 12.6189368,14.9937053 C11.4878842,15.8580211 9.56472632,16.2905474 6.84798947,16.2905474 C2.35251579,16.2905474 0.237042105,14.7247579 0.501568421,11.5931789" id="Fill-970"></path>
                    <path d="M21.5054737,12.5259474 C22.0035789,12.5657368 22.3498947,12.5848947 22.5444211,12.5848947 C23.4448421,12.5848947 24.1581053,12.2127895 24.6842105,11.4671053 C25.2103158,10.7214211 25.5308421,9.69205263 25.6457895,8.379 C25.7651579,7.02615789 25.6966316,5.90321053 25.4424211,5.00868421 C25.1882105,4.11563158 24.6930526,3.66910526 23.9562105,3.66910526 C23.3932632,3.66910526 22.9636842,3.77963158 22.6674737,4.00215789 C22.372,4.22394737 22.2113684,4.47815789 22.1863158,4.76478947 L21.5054737,12.5259474 Z M15.3049474,21.3525789 L16.6798947,5.68142105 C16.7447368,4.94605263 16.8921053,4.29026316 17.1234737,3.71331579 C17.3548421,3.13710526 17.7217895,2.56752632 18.2250526,2.00605263 C18.7275789,1.44457895 19.4666316,1.01205263 20.4429474,0.709210526 C21.4177895,0.406368421 22.6122105,0.253842105 24.0254737,0.253842105 C29.1988421,0.253842105 31.5530526,2.89836842 31.0888421,8.18594737 C30.87,10.6808947 30.0815789,12.5922632 28.7228421,13.9193158 C27.3641053,15.2463684 25.5396842,15.9102632 23.2503158,15.9102632 C22.1855789,15.9102632 21.5076842,15.8903684 21.2136842,15.8505789 L20.7310526,21.3525789 L15.3049474,21.3525789 Z" id="Fill-972"></path>
                    <path d="M37.3470632,12.5259474 C37.8451684,12.5657368 38.1914842,12.5848947 38.3860105,12.5848947 C39.2864316,12.5848947 39.9996947,12.2127895 40.5258,11.4671053 C41.0519053,10.7214211 41.3724316,9.69205263 41.4873789,8.379 C41.6067474,7.02615789 41.5382211,5.90321053 41.2847474,5.00868421 C41.0298,4.11563158 40.5346421,3.66910526 39.7978,3.66910526 C39.2348526,3.66910526 38.8052737,3.77963158 38.5098,4.00215789 C38.2135895,4.22394737 38.0529579,4.47815789 38.0279053,4.76478947 L37.3470632,12.5259474 Z M31.1465368,21.3525789 L32.5214842,5.68142105 C32.5863263,4.94605263 32.7336947,4.29026316 32.9650632,3.71331579 C33.1964316,3.13710526 33.5633789,2.56752632 34.0666421,2.00605263 C34.5691684,1.44457895 35.3082211,1.01205263 36.2845368,0.709210526 C37.2593789,0.406368421 38.4538,0.253842105 39.8670632,0.253842105 C45.0404316,0.253842105 47.3946421,2.89836842 46.9304316,8.18594737 C46.7115895,10.6808947 45.9231684,12.5922632 44.5644316,13.9193158 C43.2056947,15.2463684 41.3812737,15.9102632 39.0919053,15.9102632 C38.0271684,15.9102632 37.3492737,15.8903684 37.0552737,15.8505789 L36.5726421,21.3525789 L31.1465368,21.3525789 Z" id="Fill-973"></path>
                </g>
            </g>
        </g>
    </g>
</svg>