<?xml version="1.0" encoding="UTF-8" standalone="no"?>
<svg width="84px" height="20px" viewBox="0 0 84 20" version="1.1" xmlns="http://www.w3.org/2000/svg" xmlns:xlink="http://www.w3.org/1999/xlink">
    <!-- Generator: Sketch 39.1 (31720) - http://www.bohemiancoding.com/sketch -->
    <title>Logo_bizzi</title>
    <desc>Created with Sketch.</desc>
    <defs></defs>
    <g id="BIZZI-Clean" stroke="none" stroke-width="1" fill="none" fill-rule="evenodd">
        <g id="menu_tasks" transform="translate(-31.000000, -16.000000)">
            <g id="menu-bar">
                <g id="Logo_bizzi" transform="translate(31.000000, 16.000000)">
                    <path d="M3.9830791,12.3935493 C3.96443503,12.605662 4.04833333,12.7941127 4.23477401,12.9586197 C4.42121469,13.1231268 4.7229096,13.2050986 5.13985876,13.2050986 C5.68533898,13.2050986 6.11217514,12.8760845 6.42008475,12.218338 C6.72771186,11.5603099 6.92573446,10.7304507 7.01387006,9.72847887 C7.09889831,8.75608451 6.99522599,7.99185915 6.70313559,7.43608451 C6.41076271,6.88059155 5.93110169,6.60256338 5.26443503,6.60256338 C5.12799435,6.60256338 4.8689548,6.61721127 4.48731638,6.64650704 L3.9830791,12.3935493 Z M0.0237570621,11.7259437 L1.05257062,2.81690142e-05 L5.07064972,2.81690142e-05 L4.70341808,4.18453521 C4.92573446,4.15523944 5.43081921,4.14030986 6.21923729,4.14030986 C7.91443503,4.14030986 9.17884181,4.63185915 10.0127401,5.61495775 C10.8463559,6.59777465 11.1822316,8.01270423 11.0200847,9.86002817 C10.6765819,13.7758028 8.5969209,15.7335493 4.78166667,15.7335493 L4.7590678,15.7335493 C3.71245763,15.7335493 2.84776836,15.6217183 2.16471751,15.3977746 C1.48194915,15.173831 0.990423729,14.8543944 0.690706215,14.4400282 C0.390988701,14.0250986 0.192966102,13.6050986 0.0966384181,13.1794648 C0.000310734463,12.7535493 -0.0239830508,12.2693239 0.0237570621,11.7259437 L0.0237570621,11.7259437 Z" id="Fill-1" fill="#F9B31C"></path>
                    <path d="M12.9895198,2.98112676 L13.2482768,0.0329577465 L17.3573164,0.0329577465 L17.0988418,2.98112676 L12.9895198,2.98112676 Z M11.9316102,15.5571831 L12.9217232,4.27295775 L16.9395198,4.27295775 L15.9496893,15.5571831 L11.9316102,15.5571831 Z" id="Fill-3" fill="#F9B31C"></path>
                    <polygon id="Fill-5" fill="#F9B31C" points="17.1785311 15.5570423 17.4528249 12.4314085 22.7429379 7.29816901 18.0169492 7.29816901 18.2824859 4.2728169 27.4717514 4.2728169 27.1935028 7.44267606 22.410452 12.3880282 26.7596045 12.3880282 26.4816384 15.5570423"></polygon>
                    <polygon id="Fill-7" fill="#F9B31C" points="27.9778249 15.5570423 28.2524011 12.4271831 36.0524011 3.79816901 29.0783898 3.79816901 29.3699153 0.474788732 41.3207627 0.474788732 41.055226 3.50098592 33.4631356 12.2333803 40.2891243 12.2333803 39.9975989 15.5570423"></polygon>
                    <path d="M43.3914972,2.98112676 L43.6499718,0.0329577465 L47.7592938,0.0329577465 L47.5008192,2.98112676 L43.3914972,2.98112676 Z M42.3335876,15.5571831 L43.3237006,4.27295775 L47.3414972,4.27295775 L46.3516667,15.5571831 L42.3335876,15.5571831 Z" id="Fill-9" fill="#F9B31C"></path>
                    <path d="M52.8576836,11.5655211 C52.7873446,12.3641127 53.1271751,12.7635493 53.8766102,12.7635493 L53.899774,12.7635493 C54.2740678,12.7635493 54.5771751,12.6193239 54.8093785,12.3308732 C55.0410169,12.0424225 55.1709605,11.7393239 55.1989266,11.4210141 L55.2825424,10.467493 C54.9105085,10.4376338 54.6517514,10.4227042 54.5065537,10.4227042 C53.4740678,10.4227042 52.9243503,10.803831 52.8576836,11.5655211 M48.7808475,12.2334085 C48.8011864,12.0055211 48.849774,11.7717183 48.9280226,11.5325634 C49.0059887,11.2934085 49.1644633,11.0046761 49.4031638,10.6658028 C49.6418644,10.3272113 49.9435593,10.0291831 50.3082486,9.77143662 C50.6729379,9.51397183 51.2014689,9.2948169 51.8938418,9.11453521 C52.5862147,8.93425352 53.3850847,8.84411268 54.2896045,8.84411268 C54.7715254,8.84411268 55.1226554,8.85115493 55.3432768,8.86608451 C55.3975141,8.24777465 55.279435,7.80608451 54.9887571,7.54129577 C54.6986441,7.27594366 54.3429944,7.14383099 53.9226554,7.14383099 C52.7520339,7.14383099 51.5494915,7.37932394 50.3153107,7.85030986 L50.5740678,4.90242254 C51.9729379,4.37960563 53.2732203,4.11847887 54.4746328,4.11847887 C56.1887571,4.11847887 57.4774576,4.53988732 58.3407345,5.38270423 C59.2040113,6.22552113 59.5664407,7.43819718 59.4274576,9.02073239 L59.1929944,11.6925634 C59.0703955,13.0911549 58.5901695,14.1105915 57.7534463,14.7511549 C56.9161582,15.3914366 55.4918644,15.7117183 53.4802825,15.7117183 C50.1514689,15.7117183 48.5850847,14.5525634 48.7808475,12.2334085" id="Fill-11" fill="#FFFFFF"></path>
                    <path d="M64.2564407,13.2056056 C64.6253672,13.2349014 64.8815819,13.2492676 65.0256497,13.2492676 C65.6925989,13.2492676 66.2208475,12.973493 66.6103955,12.4213803 C66.999661,11.8692676 67.2372316,11.1072958 67.3225424,10.1346197 C67.410678,9.13292958 67.360113,8.30138028 67.1719774,7.63940845 C66.9835593,6.978 66.6166102,6.64701408 66.0711299,6.64701408 C65.6541808,6.64701408 65.3363842,6.72898592 65.1171751,6.89377465 C64.8979661,7.05828169 64.779322,7.2464507 64.760678,7.45856338 L64.2564407,13.2056056 Z M59.6649153,19.741662 L60.6832768,8.13743662 C60.7310169,7.59264789 60.840339,7.10701408 61.0115254,6.67997183 C61.1827119,6.25321127 61.4547458,5.83152113 61.8270621,5.41574648 C62.199661,4.99997183 62.7468362,4.67969014 63.469435,4.45546479 C64.1917514,4.23095775 65.0762147,4.11828169 66.1225424,4.11828169 C69.9533333,4.11828169 71.6965537,6.07630986 71.3530508,9.99208451 C71.190904,11.8391268 70.6067232,13.2546197 69.600791,14.2374366 C68.5945763,15.2199718 67.2437288,15.7115211 65.5485311,15.7115211 C64.760113,15.7115211 64.2578531,15.6968732 64.040339,15.6672958 L63.6829944,19.741662 L59.6649153,19.741662 Z" id="Fill-13" fill="#FFFFFF"></path>
                    <path d="M75.9586441,13.2056056 C76.3275706,13.2349014 76.5837853,13.2492676 76.7278531,13.2492676 C77.3948023,13.2492676 77.9230508,12.973493 78.3125989,12.4213803 C78.7018644,11.8692676 78.939435,11.1072958 79.0247458,10.1346197 C79.1128814,9.13292958 79.0623164,8.30138028 78.8741808,7.63940845 C78.6857627,6.978 78.3188136,6.64701408 77.7733333,6.64701408 C77.3563842,6.64701408 77.0385876,6.72898592 76.8193785,6.89377465 C76.6001695,7.05828169 76.4815254,7.2464507 76.4628814,7.45856338 L75.9586441,13.2056056 Z M71.3671186,19.741662 L72.3854802,8.13743662 C72.4332203,7.59264789 72.5425424,7.10701408 72.7137288,6.67997183 C72.8849153,6.25321127 73.1569492,5.83152113 73.5292655,5.41574648 C73.9018644,4.99997183 74.4490395,4.67969014 75.1716384,4.45546479 C75.8939548,4.23095775 76.7784181,4.11828169 77.8247458,4.11828169 C81.6555367,4.11828169 83.3987571,6.07630986 83.0552542,9.99208451 C82.8931073,11.8391268 82.3089266,13.2546197 81.3029944,14.2374366 C80.2967797,15.2199718 78.9459322,15.7115211 77.2507345,15.7115211 C76.4623164,15.7115211 75.9600565,15.6968732 75.7425424,15.6672958 L75.3851977,19.741662 L71.3671186,19.741662 Z" id="Fill-15" fill="#FFFFFF"></path>
                </g>
            </g>
        </g>
    </g>
</svg>